<svg width="31" height="40" viewBox="0 0 31 40" fill="none" xmlns="http://www.w3.org/2000/svg">
<path d="M15.572 18.7178C19.2424 18.7178 22.3371 21.0332 23.2008 24.1701H25C24.0644 20.0622 20.25 17 15.572 17C10.3182 17 6 21.0332 6 25.9627C6 30.9668 10.3182 35 15.572 35C20.25 35 24.0644 31.8631 25 27.8299H23.2008C22.3371 30.8921 19.2424 33.2075 15.572 33.2075C11.1818 33.2075 7.65534 29.9959 7.65534 25.9627C7.65534 22.0041 11.1818 18.7178 15.572 18.7178Z" fill="#9F9F9F"/>
<path d="M15.5756 40C23.5146 40 30.0171 34.5826 31 27.5325H29.2609C28.278 33.6178 22.5317 38.2931 15.5756 38.2931C8.01462 38.2931 1.81465 32.6531 1.81465 25.6772C1.81465 18.7755 8.01462 13.1354 15.5756 13.1354C22.5317 13.1354 28.278 17.8108 29.2609 23.8961H31C30.6976 21.5213 29.7146 19.2208 28.2024 17.2913C28.2024 17.2418 28.1772 17.1923 28.1268 17.1429L17.8439 3.04267L15.5756 0L14.0634 2.07792L3.09998 17.1429C3.04958 17.1923 2.99921 17.2665 2.9488 17.3655C1.05856 19.7403 0 22.6345 0 25.6772C0 33.6178 6.95608 40 15.5756 40ZM15.5756 2.96846L22.9854 13.0612C18.2976 10.7607 12.8536 10.7607 8.1658 13.0612L15.5756 2.96846Z" fill="black"/>
</svg>
